<?xml version="1.0" encoding="UTF-8"?>
<svg version="1.1" xmlns="http://www.w3.org/2000/svg" width="48" height="48">
<path d="M0 0 C2.15625 1.53125 2.15625 1.53125 4 4 C4.40100915 6.83065284 4.56122899 9.18346659 4.5 12 C4.51546875 12.7115625 4.5309375 13.423125 4.546875 14.15625 C4.52083552 17.64554089 4.26545666 19.64455804 2.15625 22.46875 C-0.78931922 24.56053104 -2.46316973 24.58947171 -6 24 C-8.15625 22.46875 -8.15625 22.46875 -10 20 C-10.40100915 17.16934716 -10.56122899 14.81653341 -10.5 12 C-10.51546875 11.2884375 -10.5309375 10.576875 -10.546875 9.84375 C-10.52083552 6.35445911 -10.26545666 4.35544196 -8.15625 1.53125 C-5.21068078 -0.56053104 -3.53683027 -0.58947171 0 0 Z " fill="#FFFFFF" transform="translate(27,5)"/>
<path d="M0 0 C1.875 0.1875 1.875 0.1875 4 1 C4.71727778 2.64551962 5.38325228 4.31422289 6 6 C9.48868651 8.32579101 10.89718519 8.41865457 15 8 C18.65992073 6.06837517 19.74425659 3.87187551 21 0 C21.99 0 22.98 0 24 0 C24.33964174 3.65114875 24.26393998 5.55333235 22.375 8.75 C19.68878692 11.29483345 17.55839258 12.11040186 14 13 C14 14.32 14 15.64 14 17 C16.31 17 18.62 17 21 17 C21 17.99 21 18.98 21 20 C15.06 20 9.12 20 3 20 C3 19.01 3 18.02 3 17 C5.31 17 7.62 17 10 17 C10 15.68 10 14.36 10 13 C9.0925 12.773125 8.185 12.54625 7.25 12.3125 C3.44139093 10.77440787 2.07891677 9.51816683 0 6 C-0.25 2.6875 -0.25 2.6875 0 0 Z " fill="#FFFFFF" transform="translate(12,22)"/>
</svg>
